<svg height="456pt" viewBox="0 -13 456.83393 456" width="456pt" xmlns="http://www.w3.org/2000/svg"><path d="m150.355469 322.371094c-30.046875 0-54.402344 24.355468-54.402344 54.398437 0 30.046875 24.355469 54.402344 54.402344 54.402344 30.042969 0 54.398437-24.355469 54.398437-54.402344-.03125-30.03125-24.367187-54.367187-54.398437-54.398437zm0 0"/><path d="m454.855469 98.070312c-1.902344-2.5-4.859375-3.976562-8-4h-353.101563l-7.199218-40.300781c-4.4375-24.808593-23.882813-44.210937-48.699219-48.597656l-26.101563-4.601563c-5.441406-.964843-10.632812 2.660157-11.601562 8.101563-.964844 5.4375 2.660156 10.632813 8.101562 11.597656l26.199219 4.601563c16.53125 2.929687 29.472656 15.871094 32.402344 32.398437l35.398437 199.703125c4.179688 23.894532 24.941406 41.320313 49.199219 41.296875h210c22.0625.070313 41.546875-14.371093 47.902344-35.5l47-155.796875c.988281-3.035156.425781-6.359375-1.5-8.902344zm0 0"/><path d="m360.355469 322.371094c-30.046875 0-54.402344 24.355468-54.402344 54.398437 0 30.046875 24.355469 54.402344 54.402344 54.402344 30.042969 0 54.398437-24.355469 54.398437-54.402344-.03125-30.03125-24.367187-54.367187-54.398437-54.398437zm0 0"/></svg>