<svg height="511pt" viewBox="0 -4 511.78038 511" width="511pt" xmlns="http://www.w3.org/2000/svg"><path d="m511.78125 424.1875v-35.3125c0-4.875-3.953125-8.824219-8.828125-8.824219h-52.964844c-4.875 0-8.828125-3.953125-8.828125-8.828125v-52.964844c0-4.878906-3.953125-8.828124-8.828125-8.828124h-35.308593c-4.878907 0-8.828126 3.949218-8.828126 8.828124v52.964844c0 4.875-3.953124 8.828125-8.828124 8.828125h-52.964844c-4.875 0-8.828125 3.949219-8.828125 8.824219v35.3125c0 4.875 3.953125 8.828125 8.828125 8.828125h52.964844c4.875 0 8.828124 3.953125 8.828124 8.828125v52.964844c0 4.875 3.949219 8.828125 8.828126 8.828125h35.308593c4.875 0 8.828125-3.953125 8.828125-8.828125v-52.964844c0-4.875 3.953125-8.828125 8.828125-8.828125h52.964844c4.875 0 8.828125-3.953125 8.828125-8.828125zm0 0"/><path d="m242.097656 445.019531c42.992188-42.902343 63.027344-98.164062 57.554688-145.390625-1.707032-13.09375 2.058594-26.308594 10.414062-36.535156 8.351563-10.226562 20.554688-16.550781 33.726563-17.488281h.527343c22.597657-.972657-15.710937-27.542969-60.910156-25.601563 1.941406-45.195312-24.628906-83.507812-25.597656-60.910156v.53125c-.9375 13.167969-7.265625 25.371094-17.492188 33.726562-10.222656 8.351563-23.441406 12.117188-36.535156 10.410157-47.226562-5.472657-102.488281 14.566406-145.390625 57.554687-65.675781 65.679688-77.769531 160.046875-27.011719 210.714844 50.757813 50.671875 145.039063 38.667969 210.714844-27.011719zm-98.867187-212.480469c16.019531-5.691406 32.96875-8.324218 49.960937-7.765624 3.15625.140624 5.992188 1.953124 7.449219 4.757812 1.453125 2.800781 1.300781 6.164062-.398437 8.824219-1.699219 2.664062-4.691407 4.214843-7.84375 4.070312-14.777344-.476562-29.507813 1.832031-43.433594 6.796875-.929688.347656-1.917969.527344-2.910156.53125-4.351563.035156-8.078126-3.105468-8.78125-7.398437-.703126-4.292969 1.824218-8.457031 5.957031-9.816407zm-57.027344 56.585938c-1.613281 1.6875-3.84375 2.644531-6.179687 2.648438-3.566407-.023438-6.773438-2.175782-8.140626-5.46875-1.367187-3.292969-.628906-7.085938 1.871094-9.625 9.492188-9.53125 19.964844-18.023438 31.25-25.335938 2.652344-1.71875 6.015625-1.894531 8.828125-.460938 2.8125 1.4375 4.648438 4.261719 4.8125 7.417969.164063 3.152344-1.367187 6.152344-4.015625 7.871094-10.246094 6.644531-19.773437 14.335937-28.425781 22.953125zm0 0"/><path d="m326.3125 207.824219 87.921875-87.835938c.421875-.40625.863281-.789062 1.324219-1.148437 3.519531-2.265625 8.140625-1.789063 11.125 1.148437 17.488281 17.253907 45.621094 17.160157 62.992187-.210937 17.371094-17.371094 17.464844-45.507813.210938-62.996094l-10.945313-8.03125c-1.003906-.523438-2.035156-.996094-3.089844-1.414062-.761718-.398438-1.558593-.722657-2.382812-.96875-1.234375-.441407-2.472656-.796876-3.707031-1.148438l-1.589844-.351562c-.089844 0-.265625-.089844-.351563-.089844-8.15625-1.84375-16.671874-1.324219-24.542968 1.5-4.605469 1.589844-9.632813-.804688-11.296875-5.382813-1.589844-4.582031.8125-9.589843 5.382812-11.210937 5.808594-2.109375 11.917969-3.273438 18.097657-3.445313-2.15625-4.730469-5.144532-9.039062-8.828126-12.710937-13.605468-13.644532-34.421874-17.035156-51.65625-8.410156-17.230468 8.625-26.992187 27.324218-24.222656 46.390624 2.769532 19.070313 17.449219 34.21875 36.417969 37.585938 4.6875.628906 8.042969 4.835938 7.617187 9.542969-.425781 4.707031-4.484374 8.242187-9.203124 8.023437-.503907-.023437-1.007813-.082031-1.503907-.179687-9.609375-1.667969-18.6875-5.601563-26.480469-11.472657l-81.921874 81.917969c2.484374 8.472657 4.140624 17.164063 4.945312 25.953125 8.699219.828125 17.300781 2.484375 25.6875 4.945313zm0 0"/></svg>