<?xml version="1.0" encoding="iso-8859-1"?>
<!-- Generator: Adobe Illustrator 19.0.0, SVG Export Plug-In . SVG Version: 6.00 Build 0)  -->
<svg version="1.1" id="Capa_1" xmlns="http://www.w3.org/2000/svg" xmlns:xlink="http://www.w3.org/1999/xlink" x="0px" y="0px"
	 viewBox="0 0 512 512" style="enable-background:new 0 0 512 512;" xml:space="preserve">
<g>
	<g>
		<path d="M336,32h-34.752C294.656,13.376,276.864,0,256,0s-38.656,13.376-45.28,32H176c-8.832,0-16,7.168-16,16v32
			c0,8.832,7.168,16,16,16h160c8.832,0,16-7.168,16-16V48C352,39.168,344.832,32,336,32z"/>
	</g>
</g>
<g>
	<g>
		<path d="M416,64h-32v16c0,26.464-21.536,48-48,48H176c-26.464,0-48-21.536-48-48V64H96c-17.632,0-32,14.368-32,32v384
			c0,17.952,14.048,32,32,32h320c17.952,0,32-14.048,32-32V96C448,78.048,433.952,64,416,64z M272,414.016V432
			c0,8.832-7.168,16-16,16c-8.832,0-16-7.168-16-16v-18.016c-10.016-2.272-19.36-6.496-27.072-12.768
			c-6.88-5.568-7.904-15.648-2.304-22.496c5.6-6.912,15.648-7.872,22.496-2.304C239.168,381.312,247.296,384,256,384
			c17.344,0,32-10.976,32-24s-14.656-24-32-24c-35.296,0-64-25.12-64-56c0-26.016,20.48-47.744,48-54.016V208
			c0-8.832,7.168-16,16-16c8.832,0,16,7.168,16,16v18.016c10.016,2.272,19.36,6.496,27.072,12.768
			c6.88,5.568,7.904,15.648,2.304,22.496c-5.6,6.88-15.68,7.872-22.496,2.304C272.832,258.688,264.704,256,256,256
			c-17.344,0-32,10.976-32,24s14.656,24,32,24c35.296,0,64,25.12,64,56C320,386.016,299.52,407.744,272,414.016z"/>
	</g>
</g>
<g>
</g>
<g>
</g>
<g>
</g>
<g>
</g>
<g>
</g>
<g>
</g>
<g>
</g>
<g>
</g>
<g>
</g>
<g>
</g>
<g>
</g>
<g>
</g>
<g>
</g>
<g>
</g>
<g>
</g>
</svg>
