<svg id="Capa_1" enable-background="new 0 0 510.002 510.002" height="512" viewBox="0 0 510.002 510.002" width="512" xmlns="http://www.w3.org/2000/svg"><g id="XMLID_691_"><path id="XMLID_692_" d="m462.977 47.048c-84.395-84.386-227.504-50.421-258.36 63.888-19.192 71.1-20.044 98.313-68.687 146.951l-17.342 17.339 116.184 116.172 15.409-15.405c49.456-49.453 77.517-51.008 149.534-70.784 25.022-6.869 47.94-20.189 66.275-38.522h.001c60.666-60.66 57.626-159.003-3.014-219.639z"/><path id="XMLID_693_" d="m133.037 332.097-47.951 47.947c-16.271-21.674-48.362-21.983-68.634-3.094-26.839 25.008-19.506 66.947 12.306 77.56 12.676 4.23 22.484 14.036 26.714 26.711 10.6 31.769 52.542 39.156 77.568 12.305 18.723-20.089 18.646-51.977-2.783-68.378l47.92-47.916z"/></g></svg>