<?xml version="1.0" encoding="iso-8859-1"?>
<!-- Generator: Adobe Illustrator 19.0.0, SVG Export Plug-In . SVG Version: 6.00 Build 0)  -->
<svg version="1.1" id="Capa_1" xmlns="http://www.w3.org/2000/svg" xmlns:xlink="http://www.w3.org/1999/xlink" x="0px" y="0px"
	 viewBox="0 0 509.44 509.44" style="enable-background:new 0 0 509.44 509.44;" xml:space="preserve">
<g>
	<g>
		<path d="M0,238.72c6.56,91.392,67.84,172.032,158.72,206.496v33.504c0,8.832,7.168,16,16,16h160c8.832,0,16-7.168,16-16v-33.504
			c90.88-34.464,152.128-115.104,158.72-206.496H0z"/>
	</g>
</g>
<g>
	<g>
		<path d="M390.56,79.04c-18.272-20.64-44.064-32.32-71.84-32.32s-53.568,11.68-71.84,32.32c-8.48,0.672-16.48,2.88-24.16,5.76
			V30.72c0-8.96-7.04-16-16-16c-54.08,0-99.2,38.4-109.76,89.6L86.08,93.44c-3.2-2.88-7.36-4.48-11.2-4.48
			c-4.16,0-8.32,1.6-11.52,4.48c-30.496,30.72-39.136,74.688-26.88,113.28h33.792c-11.648-24.992-9.856-54.72,5.568-78.08
			l21.44,21.44l56.64,56.64h53.792h15.008h48l-25.6-19.2c-7.072-5.312-8.512-15.328-3.2-22.4c5.312-7.072,15.36-8.48,22.4-3.2
			l38.4,28.8v-32c0-8.832,7.168-16,16-16c8.832,0,16,7.168,16,16v32l38.4-28.8c7.04-5.312,17.056-3.904,22.4,3.2
			c5.28,7.072,3.84,17.088-3.232,22.4l-25.568,19.2h106.368c3.616-10.24,5.632-21.056,5.632-32
			C478.72,124.416,439.84,83.04,390.56,79.04z M190.72,198.4l-63.68-63.68c-0.32-2.56-0.32-5.12-0.32-8c0-38.72,27.52-71.04,64-78.4
			V198.4z"/>
	</g>
</g>
<g>
</g>
<g>
</g>
<g>
</g>
<g>
</g>
<g>
</g>
<g>
</g>
<g>
</g>
<g>
</g>
<g>
</g>
<g>
</g>
<g>
</g>
<g>
</g>
<g>
</g>
<g>
</g>
<g>
</g>
</svg>
