<?xml version="1.0" encoding="iso-8859-1"?>
<!-- Generator: Adobe Illustrator 16.0.0, SVG Export Plug-In . SVG Version: 6.00 Build 0)  -->
<!DOCTYPE svg PUBLIC "-//W3C//DTD SVG 1.1//EN" "http://www.w3.org/Graphics/SVG/1.1/DTD/svg11.dtd">
<svg version="1.1" id="Capa_1" xmlns="http://www.w3.org/2000/svg" xmlns:xlink="http://www.w3.org/1999/xlink" x="0px" y="0px"
	 width="493.559px" height="493.559px" viewBox="0 0 493.559 493.559" style="enable-background:new 0 0 493.559 493.559;"
	 xml:space="preserve">
<g>
	<g>
		<path d="M472.268,32.812c-68.031,29.104-128.254,73.47-176.748,128.783h37.506c43.469-44.538,95.611-80.182,153.238-104.834
			C502.664,49.747,488.52,25.862,472.268,32.812z"/>
		<path d="M283.789,175.462H0c0,135.555,109.89,245.445,245.445,245.445s245.446-109.891,245.446-245.445H320.055H283.789z"/>
		<rect y="448.642" width="490.891" height="41.601"/>
		<path d="M167.416,107.594c0.26-0.604,0.413-1.173,0.61-1.736c0.213-0.56,0.596-1.082,0.868-1.592
			c0.355-0.502,0.43-1.004,0.86-1.45c0.388-0.45,0.701-0.882,1.009-1.295c0.252-0.416,0.638-0.815,1.068-1.19
			c0.405-0.374,0.746-0.746,1.054-1.115c0.821-0.732,1.775-1.442,2.433-2.196c1.098-0.741,2.033-1.531,2.9-2.335
			c1.021-0.546,1.895-1.14,2.652-1.847c0.077-0.111,0.632-0.491,1.087-0.815l1.384-0.985c0.932-0.649,1.838-1.334,2.746-2.019
			l2.033-1.514l3.544-2.737c4.628-3.93,8.947-8.706,12.383-14.238c3.45-5.511,5.894-11.81,6.966-18.056
			c1.104-6.248,0.857-12.347-0.271-17.649c-1.104-5.328-3.134-9.865-5.331-13.626c-4.509-7.524-9.962-11.975-14.055-14.563
			c-2.02-1.317-3.875-2.08-5.037-2.623c-1.209-0.519-1.922-0.697-1.922-0.697s-0.022,0.697-0.061,2.005
			c0.014,1.243-0.172,3.142-0.261,5.322c-0.258,4.393-0.732,10.35-1.997,16.155c-0.593,2.893-1.503,5.741-2.565,8.264
			c-1.076,2.541-2.354,4.743-3.758,6.681c-1.412,1.944-2.938,3.669-4.687,5.486c-1.755,1.806-3.789,3.678-6.124,5.652l-1.845,1.483
			l-0.458,0.378l-0.114,0.094l-1.04,0.813l-0.08,0.072l-0.319,0.286l-1.275,1.135c-0.852,0.754-1.7,1.508-2.518,2.293l-1.237,1.162
			c-0.416,0.394-0.768,0.691-1.42,1.442c-2.33,2.554-4.521,5.2-6.529,7.854c-1.7,2.771-3.239,5.561-4.612,8.317
			c-0.61,1.531-1.14,3.09-1.636,4.615c-0.478,1.553-1.029,2.973-1.284,4.587c-0.266,1.609-0.494,3.195-0.649,4.754
			c-0.075,0.771-0.149,1.54-0.224,2.302c-0.042,0.765,0.039,1.558,0.067,2.321c0.141,3.07,0.402,5.966,1.267,8.634
			c0.4,1.328,0.722,2.638,1.212,3.833c0.53,1.185,1.012,2.335,1.595,3.412c1.045,2.205,2.455,3.974,3.688,5.661
			c1.336,1.622,2.71,2.979,4.013,4.202c1.423,1.125,2.665,2.163,3.955,2.973c1.32,0.782,2.46,1.492,3.603,2.008
			c2.216,1.087,4.168,1.589,5.405,1.953c1.287,0.327,2.016,0.382,2.016,0.382s-0.085-0.693-0.247-1.991
			c-0.192-1.229-0.258-3.131-0.413-5.261c-0.028-1.048-0.059-2.213-0.094-3.478c0.041-1.179,0.085-2.455,0.132-3.816
			C166.179,112.674,166.526,110,167.416,107.594z"/>
		<path d="M246.916,107.594c0.261-0.604,0.412-1.173,0.609-1.736c0.217-0.56,0.596-1.082,0.87-1.592
			c0.354-0.502,0.428-1.004,0.858-1.45c0.389-0.45,0.7-0.882,1.009-1.295c0.253-0.416,0.639-0.815,1.066-1.19
			c0.406-0.374,0.748-0.746,1.056-1.115c0.821-0.732,1.774-1.442,2.433-2.196c1.098-0.741,2.031-1.531,2.9-2.335
			c1.021-0.546,1.895-1.14,2.652-1.847c0.076-0.111,0.632-0.491,1.086-0.815l1.384-0.985c0.933-0.649,1.84-1.334,2.745-2.019
			l2.033-1.514l3.545-2.737c4.63-3.93,8.947-8.706,12.383-14.238c3.451-5.511,5.895-11.81,6.968-18.056
			c1.104-6.248,0.856-12.347-0.272-17.649c-1.104-5.328-3.133-9.865-5.33-13.626c-4.51-7.524-9.961-11.975-14.053-14.563
			c-2.019-1.317-3.873-2.08-5.037-2.623c-1.209-0.519-1.922-0.697-1.922-0.697s-0.021,0.697-0.061,2.005
			c0.013,1.243-0.172,3.142-0.262,5.322c-0.258,4.393-0.73,10.35-1.996,16.155c-0.594,2.893-1.504,5.741-2.565,8.264
			c-1.075,2.541-2.354,4.743-3.758,6.681c-1.412,1.944-2.938,3.669-4.687,5.486c-1.758,1.806-3.79,3.678-6.125,5.652l-1.844,1.483
			l-0.458,0.378l-0.114,0.094l-1.04,0.813l-0.08,0.072l-0.319,0.286l-1.276,1.135c-0.852,0.754-1.7,1.508-2.518,2.293l-1.237,1.162
			c-0.416,0.394-0.768,0.691-1.419,1.442c-2.33,2.554-4.521,5.2-6.529,7.854c-1.7,2.771-3.239,5.561-4.612,8.317
			c-0.61,1.531-1.14,3.09-1.636,4.615c-0.477,1.553-1.029,2.973-1.284,4.587c-0.266,1.609-0.494,3.195-0.649,4.754
			c-0.075,0.771-0.149,1.54-0.225,2.302c-0.042,0.765,0.039,1.558,0.066,2.321c0.142,3.07,0.402,5.966,1.268,8.634
			c0.399,1.328,0.721,2.638,1.212,3.833c0.53,1.185,1.012,2.335,1.595,3.412c1.048,2.205,2.455,3.974,3.688,5.661
			c1.337,1.622,2.71,2.979,4.013,4.202c1.422,1.125,2.665,2.163,3.955,2.973c1.32,0.782,2.46,1.492,3.603,2.008
			c2.216,1.087,4.168,1.589,5.405,1.953c1.287,0.327,2.017,0.382,2.017,0.382s-0.086-0.693-0.248-1.991
			c-0.191-1.229-0.258-3.131-0.413-5.261c-0.028-1.048-0.059-2.213-0.095-3.478c0.042-1.179,0.086-2.455,0.133-3.816
			C245.678,112.674,246.022,110,246.916,107.594z"/>
	</g>
</g>
<g>
</g>
<g>
</g>
<g>
</g>
<g>
</g>
<g>
</g>
<g>
</g>
<g>
</g>
<g>
</g>
<g>
</g>
<g>
</g>
<g>
</g>
<g>
</g>
<g>
</g>
<g>
</g>
<g>
</g>
</svg>
