<?xml version="1.0" encoding="iso-8859-1"?>
<!-- Generator: Adobe Illustrator 18.1.1, SVG Export Plug-In . SVG Version: 6.00 Build 0)  -->
<svg version="1.1" id="Capa_1" xmlns="http://www.w3.org/2000/svg" xmlns:xlink="http://www.w3.org/1999/xlink" x="0px" y="0px"
	 viewBox="0 0 26 26" style="enable-background:new 0 0 26 26;" xml:space="preserve">
<g>
	<path style="fill:#030104;" d="M25.484,7.114l-4.278-3.917C21.034,3.069,20.825,3,20.61,3H5.38C5.165,3,4.956,3.069,4.783,3.197
		l-4.38,4C0.403,7.197,0,7.453,0,8v2c0,0.551,0.449,1,1,1h24c0.551,0,1-0.449,1-1V8C26,7.469,25.484,7.114,25.484,7.114z"/>
	<path style="fill:#030104;" d="M2,23c-0.551,0-1-0.449-1-1V10h3v12c0,0.551-0.449,1-1,1H2z"/>
	<path style="fill:#030104;" d="M23,23c-0.551,0-1-0.449-1-1V10h3v12c0,0.551-0.449,1-1,1H23z"/>
	<path style="fill:#030104;" d="M20,18c-0.551,0-1-0.449-1-1v-5h2v5C21,17.551,20.551,18,20,18L20,18z"/>
	<path style="fill:#030104;" d="M6,18c-0.551,0-1-0.449-1-1v-5h2v5C7,17.551,6.551,18,6,18L6,18z"/>
</g>
<g>
</g>
<g>
</g>
<g>
</g>
<g>
</g>
<g>
</g>
<g>
</g>
<g>
</g>
<g>
</g>
<g>
</g>
<g>
</g>
<g>
</g>
<g>
</g>
<g>
</g>
<g>
</g>
<g>
</g>
</svg>
