<?xml version="1.0" encoding="iso-8859-1"?>
<!-- Generator: Adobe Illustrator 19.0.0, SVG Export Plug-In . SVG Version: 6.00 Build 0)  -->
<svg version="1.1" id="Layer_1" xmlns="http://www.w3.org/2000/svg" xmlns:xlink="http://www.w3.org/1999/xlink" x="0px" y="0px"
	 viewBox="0 0 512 512" style="enable-background:new 0 0 512 512;" xml:space="preserve">
<g>
	<g>
		<path d="M492.015,295.168C504.397,284.792,512,272.579,512,255.645c0-16.915-7.596-29.153-19.941-39.49
			c-6.182-5.157-7.163-13.901-2.311-20.312c9.528-12.579,14.211-25.844,10.38-42.162c-3.391-14.474-13.149-26.69-27.443-33.859
			c-8.177-4.077-11.579-12.685-8.145-20.355c9.523-21.024,2.562-38.725-12.528-47.75C437.13,42.8,380.021,24.701,270.534,165.381
			c-6.978,8.973-22.089,8.973-29.067,0C131.968,24.699,74.881,42.82,59.987,51.716c-14.804,8.859-22.145,26.249-12.582,47.629
			c3.489,7.791,0.087,16.398-8.755,20.808c-13.617,6.831-23.376,19.052-26.777,33.526c-3.875,16.503,0.971,29.708,10.357,42.134
			c4.873,6.439,3.892,15.183-2.246,20.306C7.603,226.497,0,238.71,0,255.644c0,16.551,7.523,29.087,19.941,39.49
			c6.182,5.157,7.163,13.901,2.311,20.312c-9.528,12.579-14.211,25.844-10.38,42.162c3.402,14.474,13.16,26.696,27.442,33.859
			c8.177,4.077,11.579,12.685,8.145,20.355c-9.426,21.165-2.601,38.696,12.528,47.75c54.798,32.768,141.926-62.841,181.479-113.663
			c6.978-8.973,22.089-8.973,29.067,0c109.509,140.697,166.596,122.565,181.479,113.663c14.963-8.948,22.101-26.639,12.582-47.629
			c-3.489-7.791-0.087-16.398,8.766-20.809c13.617-6.836,23.376-19.052,26.767-33.526c3.874-16.503-0.972-29.708-10.358-42.134
			C484.896,309.035,485.877,300.291,492.015,295.168z M359.229,272.391c9.245,0,16.747,7.496,16.747,16.747
			s-7.501,16.747-16.747,16.747c-32.665,0-50.316-11.203-64.501-20.209c-12.146-7.714-20.922-13.285-38.728-13.285
			s-26.582,5.571-38.728,13.285c-14.185,9.005-31.837,20.209-64.501,20.209c-9.245,0-16.747-7.496-16.747-16.747
			s7.501-16.747,16.747-16.747c24.451,0,35.202-7.86,49.338-16.747c-14.087-8.856-24.853-16.747-49.338-16.747
			c-9.245,0-16.747-7.496-16.747-16.747c0-9.251,7.501-16.747,16.747-16.747c32.665,0,50.316,11.203,64.501,20.209
			c12.146,7.714,20.922,13.285,38.728,13.285s26.582-5.571,38.728-13.285c14.185-9.005,31.837-20.209,64.501-20.209
			c9.245,0,16.747,7.496,16.747,16.747c0,9.251-7.501,16.747-16.747,16.747c-24.452,0-35.202,7.86-49.338,16.747
			C323.978,264.5,334.744,272.391,359.229,272.391z"/>
	</g>
</g>
<g>
</g>
<g>
</g>
<g>
</g>
<g>
</g>
<g>
</g>
<g>
</g>
<g>
</g>
<g>
</g>
<g>
</g>
<g>
</g>
<g>
</g>
<g>
</g>
<g>
</g>
<g>
</g>
<g>
</g>
</svg>
