<?xml version="1.0" encoding="iso-8859-1"?>
<!-- Generator: Adobe Illustrator 19.0.0, SVG Export Plug-In . SVG Version: 6.00 Build 0)  -->
<svg version="1.1" id="Capa_1" xmlns="http://www.w3.org/2000/svg" xmlns:xlink="http://www.w3.org/1999/xlink" x="0px" y="0px"
	 viewBox="0 0 382.05 382.05" style="enable-background:new 0 0 382.05 382.05;" xml:space="preserve">
<g>
	<g>
		<path d="M217.288,0v26.56c62.721,2.156,116.617,45.162,132.64,105.84l26-6.16C356.951,53.6,292.335,2.181,217.288,0z"/>
	</g>
</g>
<g>
	<g>
		<path d="M353.292,205.216c-0.215-11.553-1.583-23.055-4.084-34.336l-26.72,6.72c16.451,78.486-33.838,155.448-112.324,171.9
			s-155.448-33.838-171.9-112.324s33.838-155.448,112.324-171.9c8.525-1.787,17.193-2.803,25.9-3.036V34.88
			C80.628,36.666,4.367,115.824,6.153,211.684S87.097,383.806,182.957,382.02C278.817,380.234,355.079,301.076,353.292,205.216z"/>
	</g>
</g>
<g>
	<g>
		<circle cx="134.728" cy="152.16" r="12"/>
	</g>
</g>
<g>
	<g>
		<circle cx="160.408" cy="271.6" r="12.08"/>
	</g>
</g>
<g>
	<g>
		<path d="M308.409,176.88l-39.2,9.44c4.993,9.853,1.053,21.888-8.8,26.881c-9.853,4.993-21.888,1.053-26.881-8.8
			c-1.408-2.778-2.147-5.846-2.16-8.961l-50.88,12.24V76c-72.725,0-131.68,58.955-131.68,131.68
			c-0.243,72.724,58.515,131.876,131.24,132.119c72.724,0.243,131.876-58.515,132.119-131.24
			C312.203,197.886,310.941,187.248,308.409,176.88z M134.728,124.16c15.464,0,28,12.536,28,28s-12.536,28-28,28
			c-15.464,0-28-12.536-28-28C106.772,136.714,119.283,124.204,134.728,124.16z M114.649,229.52c-7.82,0-14.16-6.34-14.16-14.16
			c0-7.82,6.34-14.16,14.16-14.16c7.82,0,14.16,6.34,14.16,14.16C128.808,223.18,122.469,229.52,114.649,229.52z M160.489,299.76
			c-15.508,0.044-28.116-12.492-28.16-28c-0.044-15.508,12.492-28.116,28-28.16c0.027,0,0.053,0,0.08,0
			c15.477,0,28.036,12.523,28.08,28C188.533,287.108,175.997,299.716,160.489,299.76z M237.209,285.76
			c-7.82,0-14.16-6.34-14.16-14.16c0-7.82,6.34-14.16,14.16-14.16c7.82,0,14.16,6.34,14.16,14.16
			C251.368,279.42,245.029,285.76,237.209,285.76z"/>
	</g>
</g>
<g>
	<g>
		<path d="M212.488,38.24l-1.44,131.68l50.96-11.68c0.045-11.046,9.035-19.964,20.081-19.919
			c7.572,0.031,14.477,4.335,17.839,11.119l39.28-8.96C325.625,81.24,273.262,38.992,212.488,38.24z M240.409,104.16l0,0.16
			c-7.82-0.089-14.087-6.5-13.998-14.32s6.5-14.087,14.32-13.998c7.819,0.089,14.086,6.499,13.998,14.318
			C254.554,98.078,248.168,104.25,240.409,104.16z"/>
	</g>
</g>
<g>
</g>
<g>
</g>
<g>
</g>
<g>
</g>
<g>
</g>
<g>
</g>
<g>
</g>
<g>
</g>
<g>
</g>
<g>
</g>
<g>
</g>
<g>
</g>
<g>
</g>
<g>
</g>
<g>
</g>
</svg>
