<svg id="Layer_1" enable-background="new 0 0 512 512" height="512" viewBox="0 0 512 512" width="512" xmlns="http://www.w3.org/2000/svg"><path d="m245.545 73.8.328 41.459c24.517 2.58 47.763 12.681 66.629 29.432 1.779 1.58 3.536 3.234 5.225 4.92l48.518 48.432.14.241c18.446 19.723 29.364 44.527 31.659 70.789l43.917 1.061c.121.002.242.004.362.004 36.994 0 67.091-30.055 67.091-66.999 0-17.824-6.981-34.618-19.662-47.298-.014-.014-.028-.028-.043-.043-6.812-6.8-14.813-11.961-23.522-15.285l26.211-26.165c12.637-12.615 19.596-29.443 19.597-47.385 0-17.923-6.944-34.733-19.556-47.344-.013-.013-.028-.028-.041-.041-26.154-26.107-68.709-26.107-94.863 0l-24.67 24.627c-10.948-22.2-33.854-37.525-60.229-37.525-17.858 0-34.687 6.982-47.387 19.659-12.707 12.684-19.705 29.497-19.704 47.34-.001.042 0 .082 0 .121z"/><path d="m112.775 443.832c-.003-.003-.006-.006-.009-.009-5.854-5.854-5.859-15.343-.009-21.203 5.853-5.863 15.351-5.871 21.214-.018l26.253 26.228 86.982-48.112-35.217-35.173c-.003-.003-.006-.006-.009-.009-5.854-5.854-5.859-15.344-.009-21.203 5.853-5.862 15.35-5.87 21.213-.018l41.345 41.29 46.727-25.845c24.949-13.799 41.77-37.876 46.153-66.057 4.298-27.644-4.178-55.079-23.256-75.27-.607-.642-1.224-1.277-1.853-1.906-.014-.014-.035-.03-.043-.043l-45.718-45.638c-1.278-1.275-2.608-2.528-3.953-3.722-20.365-18.081-47.575-25.82-74.654-21.232-16.227 2.749-31.079 9.653-43.328 19.834l53.217 53.126.009.009c5.854 5.854 5.859 15.344.009 21.203-5.853 5.862-15.35 5.87-21.213.018l-51.665-51.576c-.615 1.009-1.218 2.027-1.797 3.065l-63.115 113.082 27.789 27.775c.003.003.007.007.01.01 5.854 5.853 5.859 15.343.009 21.203-5.853 5.863-15.35 5.871-21.213.019l-21.79-21.78-71.721 128.508c-.435.78-.8 1.596-1.09 2.441-4.631 13.493-1.242 28.147 8.844 38.243l.014.014c10.105 10.104 24.783 13.508 38.311 8.881.832-.284 1.637-.641 2.407-1.067l81.283-44.959z"/></svg>